<svg width="27" height="27" viewBox="0 0 27 27" fill="none" xmlns="http://www.w3.org/2000/svg">
<path d="M24.7162 20.6212C24.7162 21.0262 24.6262 21.4425 24.435 21.8475C24.2437 22.2525 23.9963 22.635 23.67 22.995C23.1188 23.6025 22.5112 24.0413 21.825 24.3225C21.15 24.6038 20.4188 24.75 19.6313 24.75C18.4838 24.75 17.2575 24.48 15.9637 23.9288C14.67 23.3775 13.3762 22.635 12.0938 21.7013C10.7866 20.7451 9.55315 19.6922 8.40375 18.5512C7.26611 17.406 6.21686 16.1762 5.265 14.8725C4.3425 13.59 3.6 12.3075 3.06 11.0363C2.52 9.75375 2.25 8.5275 2.25 7.3575C2.25 6.5925 2.385 5.86125 2.655 5.18625C2.925 4.5 3.3525 3.87 3.94875 3.3075C4.66875 2.59875 5.45625 2.25 6.28875 2.25C6.60375 2.25 6.91875 2.3175 7.2 2.4525C7.4925 2.5875 7.75125 2.79 7.95375 3.0825L10.5638 6.76125C10.7663 7.0425 10.9125 7.30125 11.0137 7.54875C11.115 7.785 11.1713 8.02125 11.1713 8.235C11.1713 8.505 11.0925 8.775 10.935 9.03375C10.7888 9.2925 10.575 9.5625 10.305 9.8325L9.45 10.7212C9.32625 10.845 9.27 10.9913 9.27 11.1713C9.27 11.2613 9.28125 11.34 9.30375 11.43C9.3375 11.52 9.37125 11.5875 9.39375 11.655C9.59625 12.0262 9.945 12.51 10.44 13.095C10.9462 13.68 11.4862 14.2763 12.0712 14.8725C12.6787 15.4688 13.2637 16.02 13.86 16.5262C14.445 17.0212 14.9287 17.3587 15.3112 17.5612C15.3675 17.5837 15.435 17.6175 15.5137 17.6512C15.6037 17.685 15.6937 17.6962 15.795 17.6962C15.9862 17.6962 16.1325 17.6288 16.2562 17.505L17.1113 16.6613C17.3925 16.38 17.6625 16.1662 17.9213 16.0312C18.18 15.8737 18.4387 15.795 18.72 15.795C18.9337 15.795 19.1588 15.84 19.4062 15.9413C19.6537 16.0425 19.9125 16.1888 20.1938 16.38L23.9175 19.0237C24.21 19.2262 24.4125 19.4625 24.5362 19.7437C24.6487 20.025 24.7162 20.3062 24.7162 20.6212V20.6212Z" stroke="black" stroke-width="1.5" stroke-miterlimit="10"/>
</svg>
