<svg width="46" height="46" viewBox="0 0 46 46" fill="none" xmlns="http://www.w3.org/2000/svg">
<path d="M20.125 15.3333H25.875M12.9567 42.1667H33.0433C38.3333 42.1667 40.4417 38.9275 40.6908 34.9792L41.6875 19.1475C41.7496 18.1659 41.6097 17.1819 41.2765 16.2564C40.9433 15.331 40.4238 14.4837 39.7502 13.7669C39.0766 13.0502 38.2631 12.4792 37.3601 12.0893C36.457 11.6994 35.4836 11.4988 34.5 11.5C33.3308 11.5 32.2575 10.8292 31.7208 9.79418L30.3408 7.01501C29.4592 5.27084 27.1592 3.83334 25.2042 3.83334H20.815C18.8408 3.83334 16.5408 5.27084 15.6592 7.01501L14.2792 9.79418C13.7425 10.8292 12.6692 11.5 11.5 11.5C7.34084 11.5 4.04417 15.0075 4.31251 19.1475L5.30917 34.9792C5.53917 38.9275 7.66667 42.1667 12.9567 42.1667Z" stroke="#212121" stroke-width="1.5" stroke-linecap="round" stroke-linejoin="round"/>
<path d="M23 34.5C26.4308 34.5 29.2292 31.7017 29.2292 28.2708C29.2292 24.84 26.4308 22.0417 23 22.0417C19.5692 22.0417 16.7708 24.84 16.7708 28.2708C16.7708 31.7017 19.5692 34.5 23 34.5Z" stroke="#212121" stroke-width="1.5" stroke-linecap="round" stroke-linejoin="round"/>
</svg>
