<svg width="46" height="46" viewBox="0 0 46 46" fill="none" xmlns="http://www.w3.org/2000/svg">
<path d="M17.25 42.1667H28.75C38.3333 42.1667 42.1667 38.3333 42.1667 28.75V17.25C42.1667 7.66668 38.3333 3.83334 28.75 3.83334H17.25C7.66666 3.83334 3.83333 7.66668 3.83333 17.25V28.75C3.83333 38.3333 7.66666 42.1667 17.25 42.1667Z" stroke="#212121" stroke-width="1.5" stroke-linecap="round" stroke-linejoin="round"/>
<path d="M5.11749 36.3208L14.5667 29.9767C16.0808 28.9608 18.2658 29.0758 19.6267 30.245L20.2592 30.8008C21.7542 32.085 24.1692 32.085 25.6642 30.8008L33.6375 23.9583C35.1325 22.6742 37.5475 22.6742 39.0425 23.9583L42.1667 26.6417M17.25 19.1667C18.2667 19.1667 19.2417 18.7628 19.9606 18.0439C20.6795 17.325 21.0833 16.35 21.0833 15.3333C21.0833 14.3167 20.6795 13.3416 19.9606 12.6228C19.2417 11.9039 18.2667 11.5 17.25 11.5C16.2333 11.5 15.2583 11.9039 14.5394 12.6228C13.8205 13.3416 13.4167 14.3167 13.4167 15.3333C13.4167 16.35 13.8205 17.325 14.5394 18.0439C15.2583 18.7628 16.2333 19.1667 17.25 19.1667Z" stroke="#212121" stroke-width="1.5" stroke-linecap="round" stroke-linejoin="round"/>
</svg>
