<svg width="25" height="25" viewBox="0 0 25 25" fill="none" xmlns="http://www.w3.org/2000/svg">
<path d="M13.75 22.2604C13.0625 23.1771 11.9375 23.1771 11.25 22.2604L9.68751 20.1771C9.51043 19.9479 9.13543 19.7604 8.85418 19.7604H8.33334C4.16668 19.7604 2.08334 18.7188 2.08334 13.5104V8.30209C2.08334 4.13543 4.16668 2.05209 8.33334 2.05209H16.6667C20.8333 2.05209 22.9167 4.13543 22.9167 8.30209V13.5104" stroke="#696969" stroke-width="1.5" stroke-miterlimit="10" stroke-linecap="round" stroke-linejoin="round"/>
<path d="M22.9167 22.9167L21.875 21.875M18.9583 22.2917C19.8424 22.2917 20.6902 21.9405 21.3154 21.3154C21.9405 20.6902 22.2917 19.8424 22.2917 18.9583C22.2917 18.0743 21.9405 17.2264 21.3154 16.6013C20.6902 15.9762 19.8424 15.625 18.9583 15.625C18.0743 15.625 17.2264 15.9762 16.6013 16.6013C15.9762 17.2264 15.625 18.0743 15.625 18.9583C15.625 19.8424 15.9762 20.6902 16.6013 21.3154C17.2264 21.9405 18.0743 22.2917 18.9583 22.2917Z" stroke="#696969" stroke-width="1.5" stroke-linecap="round" stroke-linejoin="round"/>
<path d="M16.6625 11.4583H16.6729M12.4948 11.4583H12.5052M8.32812 11.4583H8.33646" stroke="#696969" stroke-width="2" stroke-linecap="round" stroke-linejoin="round"/>
</svg>
