<svg width="37" height="37" viewBox="0 0 37 37" fill="none" xmlns="http://www.w3.org/2000/svg">
<path d="M33.9166 9.63543V17.4979C33.9166 19.4558 33.2691 21.1054 32.1129 22.2463C30.9721 23.4025 29.3225 24.05 27.3646 24.05V26.8404C27.3646 27.8888 26.1929 28.5208 25.3296 27.935L23.8341 26.9483C23.9729 26.4704 24.0346 25.9463 24.0346 25.3913V19.1167C24.0346 15.9717 21.9379 13.875 18.7929 13.875H8.32498C8.10915 13.875 7.90873 13.8904 7.70831 13.9058V9.63543C7.70831 5.70418 10.3291 3.08334 14.2604 3.08334H27.3646C31.2958 3.08334 33.9166 5.70418 33.9166 9.63543Z" stroke="#476CFF" stroke-width="1.5" stroke-miterlimit="10" stroke-linecap="round" stroke-linejoin="round"/>
<path d="M24.0346 19.1167V25.3912C24.0346 25.9462 23.9729 26.4704 23.8341 26.9483C23.2637 29.2146 21.3829 30.6329 18.7929 30.6329H14.5996L9.94373 33.7317C9.78766 33.8385 9.60528 33.9005 9.41642 33.9109C9.22757 33.9214 9.03948 33.8798 8.87259 33.7908C8.7057 33.7018 8.56641 33.5687 8.46986 33.4061C8.37331 33.2435 8.3232 33.0575 8.32498 32.8683V30.6329C6.75248 30.6329 5.44206 30.1087 4.53248 29.1992C3.60748 28.2742 3.08331 26.9637 3.08331 25.3912V19.1167C3.08331 16.1875 4.90248 14.1679 7.70831 13.9058C7.90873 13.8904 8.10915 13.875 8.32498 13.875H18.7929C21.9379 13.875 24.0346 15.9717 24.0346 19.1167V19.1167Z" stroke="#476CFF" stroke-width="1.5" stroke-miterlimit="10" stroke-linecap="round" stroke-linejoin="round"/>
</svg>
