<svg width="37" height="37" viewBox="0 0 37 37" fill="none" xmlns="http://www.w3.org/2000/svg">
<path d="M26.1621 22.2617C28.2741 22.6163 30.6021 22.2463 32.2362 21.1517C34.41 19.7025 34.41 17.3283 32.2362 15.8792C30.5866 14.7846 28.2279 14.4146 26.1158 14.7846M10.7916 22.2617C8.67955 22.6163 6.35164 22.2463 4.71747 21.1517C2.54372 19.7025 2.54372 17.3283 4.71747 15.8792C6.36705 14.7846 8.7258 14.4146 10.8379 14.7846M27.75 11.0383C27.6529 11.0229 27.5541 11.0229 27.4571 11.0383C26.4282 11.0011 25.4541 10.5654 24.7406 9.82314C24.0272 9.08091 23.6302 8.09037 23.6337 7.06084C23.6337 4.85626 25.4066 3.08334 27.6112 3.08334C28.6661 3.08334 29.6778 3.5024 30.4237 4.24833C31.1697 4.99425 31.5887 6.00594 31.5887 7.06084C31.5859 8.0911 31.1848 9.08036 30.4693 9.82168C29.7539 10.563 28.7795 10.999 27.75 11.0383V11.0383ZM9.20372 11.0383C9.29622 11.0229 9.40414 11.0229 9.49664 11.0383C10.5255 11.0011 11.4996 10.5654 12.213 9.82314C12.9265 9.08091 13.3234 8.09037 13.32 7.06084C13.32 4.85626 11.5471 3.08334 9.34247 3.08334C8.28757 3.08334 7.27588 3.5024 6.52995 4.24833C5.78403 4.99425 5.36497 6.00594 5.36497 7.06084C5.38039 9.21918 7.07622 10.9613 9.20372 11.0383ZM18.5 22.5546C18.4029 22.5392 18.3041 22.5392 18.2071 22.5546C17.1782 22.5174 16.2041 22.0816 15.4906 21.3394C14.7772 20.5972 14.3802 19.6066 14.3837 18.5771C14.3837 16.3725 16.1566 14.5996 18.3612 14.5996C19.4161 14.5996 20.4278 15.0186 21.1737 15.7646C21.9197 16.5105 22.3387 17.5222 22.3387 18.5771C22.3233 20.7354 20.6275 22.4929 18.5 22.5546ZM14.0137 27.4108C11.84 28.86 11.84 31.2342 14.0137 32.6833C16.4804 34.3329 20.5196 34.3329 22.9862 32.6833C25.16 31.2342 25.16 28.86 22.9862 27.4108C20.535 25.7767 16.4804 25.7767 14.0137 27.4108Z" stroke="#212121" stroke-width="1.5" stroke-linecap="round" stroke-linejoin="round"/>
</svg>
