<svg width="46" height="46" viewBox="0 0 46 46" fill="none" xmlns="http://www.w3.org/2000/svg">
<path d="M26.8333 11.8833V19.1667C21.4858 19.2625 19.2625 21.4858 19.1666 26.8333H11.8833C6.13331 26.8333 3.83331 24.5333 3.83331 18.7833V11.8833C3.83331 6.13334 6.13331 3.83334 11.8833 3.83334H18.7833C24.5333 3.83334 26.8333 6.13334 26.8333 11.8833Z" stroke="#212121" stroke-width="1.5" stroke-linecap="round" stroke-linejoin="round"/>
<path d="M13.34 11.2508C12.3242 10.5608 10.9825 10.5608 9.96667 11.2892M21.0067 11.2508C19.9908 10.5608 18.6492 10.5608 17.6333 11.2892M15.64 21.8883H11.1933C10.6183 21.8883 10.1583 21.4283 10.1583 20.8533C10.1583 17.9975 12.4775 15.6783 15.3333 15.6783C16.56 15.6783 17.6908 16.1 18.5725 16.8092" stroke="#212121" stroke-width="1.5" stroke-miterlimit="10" stroke-linecap="round" stroke-linejoin="round"/>
<path d="M42.1667 27.2167V34.1167C42.1667 39.8667 39.8667 42.1667 34.1167 42.1667H27.2167C21.4667 42.1667 19.1667 39.8667 19.1667 34.1167V26.8333C19.2625 21.4858 21.4859 19.2625 26.8334 19.1667H34.1167C39.8667 19.1667 42.1667 21.4667 42.1667 27.2167Z" stroke="#212121" stroke-width="1.5" stroke-linecap="round" stroke-linejoin="round"/>
<path d="M28.6733 26.105C27.6575 26.795 26.3158 26.795 25.3 26.0667M36.34 26.105C35.3242 26.795 33.9825 26.795 32.9667 26.0667M26.5267 31.0117H34.8067C35.3817 31.0117 35.8417 31.4717 35.8417 32.0467C35.8417 34.9025 33.5225 37.2217 30.6667 37.2217C27.8108 37.2217 25.4917 34.9025 25.4917 32.0467C25.4917 31.4717 25.9517 31.0117 26.5267 31.0117Z" stroke="#212121" stroke-width="1.5" stroke-miterlimit="10" stroke-linecap="round" stroke-linejoin="round"/>
</svg>
