<svg width="27" height="27" viewBox="0 0 27 27" fill="none" xmlns="http://www.w3.org/2000/svg">
<path d="M14.0962 22.9725H6.98625C3.43125 22.9725 2.25 20.61 2.25 18.2362V8.76375C2.25 5.20875 3.43125 4.0275 6.98625 4.0275H14.0962C17.6512 4.0275 18.8325 5.20875 18.8325 8.76375V18.2362C18.8325 21.7912 17.64 22.9725 14.0962 22.9725V22.9725Z" stroke="black" stroke-width="1.5" stroke-linecap="round" stroke-linejoin="round"/>
<path d="M21.96 19.2375L18.8325 17.0437V9.945L21.96 7.75125C23.49 6.6825 24.75 7.335 24.75 9.21375V17.7862C24.75 19.665 23.49 20.3175 21.96 19.2375V19.2375ZM12.9375 12.375C13.3851 12.375 13.8143 12.1972 14.1307 11.8807C14.4472 11.5643 14.625 11.135 14.625 10.6875C14.625 10.2399 14.4472 9.81072 14.1307 9.49425C13.8143 9.17778 13.3851 9 12.9375 9C12.4899 9 12.0607 9.17778 11.7443 9.49425C11.4278 9.81072 11.25 10.2399 11.25 10.6875C11.25 11.135 11.4278 11.5643 11.7443 11.8807C12.0607 12.1972 12.4899 12.375 12.9375 12.375Z" stroke="black" stroke-width="1.5" stroke-linecap="round" stroke-linejoin="round"/>
</svg>
